<svg width="182" height="309" viewBox="0 0 182 309" fill="none" xmlns="http://www.w3.org/2000/svg">
<path d="M-2.06057 254.907C-6.3505 262.316 -14.9304 300.925 -14.9304 300.925L-11.5377 300.777L-5.95964 300.536C-5.95964 300.536 32.2589 246.327 31.8681 239.307C31.5176 233.051 26.5326 212.265 25.4485 207.789L25.4408 207.764C25.308 207.234 25.2386 206.938 25.2386 206.938C25.2386 206.938 56.0461 222.927 56.8259 224.097C57.6076 225.268 49.4187 239.307 47.0773 253.347C44.7379 267.386 46.6884 300.729 46.6884 300.729L53.3177 300.536C53.3177 300.536 54.0417 298.811 55.2586 295.886V295.879C61.6473 280.481 81.5354 231.757 80.2261 224.877C79.2056 219.526 62.8564 200.176 51.656 187.415C45.7198 180.653 41.2277 175.739 41.2277 175.739L-14.1506 174.96C-14.1506 174.96 -16.8809 191.34 -12.9799 202.257C-9.08083 213.178 10.0294 236.187 10.0294 236.187C10.0294 236.187 2.22937 247.498 -2.06057 254.907Z" fill="#FF4747"/>
<path d="M-14.9308 300.925C-14.9308 300.925 -6.35092 262.316 -2.06099 254.907C2.22895 247.498 10.029 236.187 10.029 236.187C10.029 236.187 -9.08125 213.178 -12.9803 202.257C-13.9893 199.432 -14.5515 196.24 -14.8384 193.063C-14.873 192.68 -14.9039 192.298 -14.9289 191.917C-14.4995 192.019 -14.0374 192.125 -13.5483 192.233C-5.97546 198.905 1.04863 204.36 5.00546 207.336L5.18454 207.477C6.98677 208.827 8.11123 209.637 8.30378 209.778L8.33652 209.801C8.33652 209.801 8.60031 212.654 9.89422 213.958C10.6182 214.682 15.349 216.686 19.4137 218.327C19.7718 228.233 22.8122 240.951 21.5972 241.257C19.5196 241.779 -8.55944 251.139 -11.1646 296.377C-11.257 297.983 -11.3822 299.443 -11.5381 300.777L-13.9026 300.879L-14.9308 300.925ZM46.6879 300.729C46.6879 300.729 45.9255 287.705 45.9255 274.508C45.9255 266.591 46.1989 258.611 47.0769 253.347C49.3124 239.938 56.8833 226.529 56.8794 224.332C56.8775 224.228 56.8621 224.149 56.8255 224.097C56.0457 222.927 25.2382 206.938 25.2382 206.938C24.753 206.811 24.3063 206.751 23.8923 206.751C22.5349 206.751 21.549 207.406 20.8501 208.532C17.2495 207.342 12.5956 206.397 11.4115 206.397C11.3171 206.397 11.2459 206.402 11.1978 206.416L5.80646 194.403C5.90658 194.403 6.00477 194.403 6.10682 194.403C18.6089 194.403 33.6718 191.621 46.0949 181.144C45.1803 180.12 44.3677 179.213 43.6803 178.449C44.3677 179.213 45.1803 180.12 46.0949 181.144C47.6853 182.921 49.5819 185.061 51.6556 187.415C27.9666 187.97 68.3937 225.135 68.3937 225.135C68.3937 225.135 40.6458 295.989 54.3224 295.985C54.6151 295.985 54.927 295.952 55.2582 295.886C54.0413 298.811 53.3173 300.536 53.3173 300.536L53.0362 300.544L47.7681 300.698L46.6879 300.729Z" fill="#FF4747"/>
<path d="M6.10685 194.403C6.0048 194.403 5.90662 194.403 5.80649 194.403L1.13531 183.996C3.97152 184.562 7.00027 184.803 10.1041 184.803C22.7486 184.803 36.6178 180.801 43.6804 178.449C44.3678 179.213 45.1803 180.12 46.0949 181.144C33.6718 191.621 18.6089 194.403 6.10685 194.403ZM-13.5483 192.233C-14.0373 192.125 -14.4995 192.019 -14.9288 191.917C-14.952 191.596 -14.9712 191.276 -14.9885 190.956C-14.5052 191.388 -14.0258 191.813 -13.5483 192.233Z" fill="#C03638"/>
<path d="M-20.7645 148.939C-20.6798 150.414 -20.5547 151.989 -20.366 153.635C-20.1176 155.874 -19.7518 158.237 -19.2357 160.607C-17.2929 169.491 -13.1917 178.562 -4.65803 182.236C14.0594 190.302 48.3808 176.777 48.3808 176.777C48.3808 176.777 40.057 168.977 39.8009 165.6L39.7932 165.467C39.7932 162.176 47.2794 140.921 61.9669 123.8L61.9746 123.794C65.0168 120.236 68.369 116.866 72.0371 113.865C80.3589 133.098 109.476 159.102 109.476 159.102L113.304 141.156L115.934 128.808L116.238 127.381C116.238 127.381 115.942 126.688 115.418 125.462V125.454C111.746 116.891 96.9968 82.5315 95.1773 79.8032C94.5611 78.8751 93.1344 77.4868 91.4419 75.9965C87.4408 72.471 81.9186 68.3601 81.9186 68.3601L43.1782 53.8055C43.1782 53.8055 9.54612 61.9021 -8.00449 70.1142C-10.0936 71.0904 -11.9498 72.0724 -13.5017 73.041C-13.5017 73.041 -13.8464 76.1294 -14.3836 80.9719C-16.3341 98.3435 -20.7799 138.268 -20.7799 139.081C-20.7799 139.423 -21.0688 143.44 -20.7645 148.939Z" fill="#3FD28D"/>
<path d="M-3.726 173.163L-12.7237 153.121C-12.7237 152.38 -3.15028 126.43 4.27046 113.976C9.78306 124.212 21.8865 133.445 36.4719 133.445C44.453 133.443 53.1753 130.68 61.967 123.8C47.2795 140.921 39.7934 162.176 39.7934 165.467C39.7067 164.36 38.5225 156.427 21.5977 155.46C21.1645 155.435 20.739 155.424 20.3154 155.424C6.86407 155.424 -0.924451 167.697 -3.726 173.163Z" fill="#21BC73"/>
<path d="M40.615 63.9527C41.0617 66.4808 42.0437 68.2118 43.6977 68.493C43.5648 76.293 45.8407 78.8269 50.327 73.3682C47.0133 88.772 60.5975 79.936 60.5975 79.936C60.5975 79.936 60.8555 88.7719 68.0086 83.835C71.7671 81.2299 79.5767 69.9217 83.4758 61.3399C83.4758 61.3399 92.5775 33.7845 96.9926 35.477C101.415 37.1618 109.995 30.6634 103.755 24.034C107.398 20.1349 106.741 10.7752 98.0381 10.5172C97.9053 4.92564 86.0733 -1.7037 77.7572 7.65598C77.2123 4.61374 73.8581 0.783997 70.0842 0.104309C67.5657 -0.348175 64.8566 0.612633 62.6731 4.14586C60.5975 0.244865 51.4977 -1.44763 48.5094 10.7752C45.5134 22.9961 47.9876 29.6274 46.5589 38.9871C42.3074 43.9009 39.3923 56.9575 40.615 63.9527Z" fill="#D75E43"/>
<path d="M40.6153 63.9527C40.4247 62.861 40.3342 61.6191 40.3342 60.2847C40.3362 53.0758 42.9721 43.1327 46.5592 38.9871C46.9482 36.4455 47.0483 34.1061 47.0483 31.8013C47.0483 29.3463 46.9347 26.9318 46.9347 24.3536C46.9328 20.4372 47.1927 16.1454 48.5097 10.7752C50.2465 3.66835 54.0493 1.26731 57.338 1.26731C59.7044 1.26731 61.8051 2.51308 62.6735 4.14587C64.5277 1.14407 66.7612 0.000343323 68.9351 0.000343323C69.3202 0.000343323 69.7053 0.0369339 70.0846 0.104324C62.3153 4.26333 70.8008 17.4046 70.8008 17.4046L60.4669 42.7534C60.4669 42.7534 60.0606 42.6917 59.3578 42.6917C55.7745 42.6917 44.5106 44.3014 40.6153 63.9527Z" fill="#C6402A"/>
<path d="M55.7858 62.8379L55.8108 62.8629C58.4082 65.8108 67.3539 59.9131 67.3539 59.9131C67.0651 59.1641 66.7301 58.4632 66.37 57.8009C62.831 51.3255 56.3095 48.8609 56.3095 48.8609C56.3095 48.8609 51.1069 57.3792 55.7858 62.8379Z" fill="white"/>
<path d="M55.811 62.8629C58.4085 65.8108 67.3542 59.9131 67.3542 59.9131C67.0654 59.1641 66.7304 58.4632 66.3703 57.8008C64.1965 58.8136 58.9053 61.3649 55.811 62.8629Z" fill="#82172A"/>
<path d="M56.6987 40.283C58.266 43.7681 66.4724 51.3255 73.9123 56.403C74.9983 57.152 76.0747 57.8394 77.1048 58.4555C79.2575 59.7417 81.2214 60.7083 82.8196 61.1781L83.1257 61.2551L83.4761 61.3399C86.4086 52.3017 93.943 46.7006 95.2523 43.9009C95.3466 43.7219 95.4025 43.5563 95.4333 43.4022C95.957 40.8028 99.5981 29.3617 99.5981 28.5819C94.9192 23.903 70.7392 12.4677 66.0584 16.3687C61.3795 20.2678 54.3593 35.0861 56.6987 40.283Z" fill="#FFC393"/>
<path d="M73.3362 54.4525L73.912 56.403C74.9979 57.152 76.0743 57.8394 77.1044 58.4555C79.2571 59.7417 81.221 60.7083 82.8192 61.1781L83.1253 61.2551L83.4757 61.3399C86.4082 52.3017 93.9426 46.7006 95.2519 43.9009L87.1803 37.6836L82.5631 39.5012L73.3362 54.4525Z" fill="#EBA87F"/>
<path d="M82.5672 39.5051C82.3072 40.4139 77.2356 56.6629 74.6362 59.1332C72.0368 61.6036 65.7964 49.5136 65.7964 49.5136L82.5672 39.5051Z" fill="#FFC393"/>
<path d="M75.0175 41.1283C76.7485 35.6561 73.2846 31.7301 66.7053 34.9437C71.6692 34.3468 75.3622 37.7972 75.0175 41.1283Z" fill="#272F44"/>
<path d="M82.5381 45.4895C86.0772 41.6347 89.647 43.3349 88.8113 48.8013C87.1323 45.1275 84.8468 44.6095 82.5381 45.4895Z" fill="#272F44"/>
<path d="M96.2804 44.055C95.2194 47.3899 86.2699 39.5051 86.4008 37.1638C86.5298 34.8243 97.1892 41.1938 96.2804 44.055Z" fill="#D75E43"/>
<path d="M83.1503 30.5344C82.3648 35.0226 67.8102 29.6236 67.4212 27.2842C67.0304 24.9447 84.0611 25.3337 83.1503 30.5344Z" fill="#D75E43"/>
<path d="M46.5571 38.5943C41.2274 36.124 34.858 31.3142 38.759 26.2444C40.8115 23.5738 44.237 24.1861 47.0193 25.3625C49.6071 26.4581 50.7874 29.4657 49.6051 32.015L46.5571 38.5943Z" fill="#FFC393"/>
<path d="M-42.0971 152.339C-34.8515 153.229 -26.3487 153.612 -20.3663 153.635C-15.8202 153.65 -12.7241 153.456 -12.7241 153.121C-12.7241 152.339 -2.06087 123.48 5.48117 112.039C12.2588 101.759 3.48446 71.7142 -9.12733 71.799C-10.5464 71.8067 -12.0059 72.1976 -13.502 73.0409C-27.8082 81.074 -41.6214 140.43 -42.1047 151.35C-42.1124 151.748 -42.1125 152.075 -42.0971 152.339Z" fill="#3FD28D"/>
<path d="M-43.3988 157.02C-35.2175 175.965 -5.10324 199.731 5.00545 207.336L5.18453 207.477C6.98676 208.827 8.11123 209.637 8.30377 209.778L8.33651 209.801L11.1978 206.416L-12.7242 153.121C-12.7242 153.121 -19.7348 151.973 -27.2307 152.168C-33.5885 152.324 -40.2969 153.441 -43.3988 157.02Z" fill="#FFC393"/>
<path d="M8.07898 206.158L8.33699 209.801C8.33699 209.801 8.60077 212.654 9.89468 213.958C11.1982 215.26 25.4967 220.72 25.4967 220.72C25.4967 220.72 25.5968 219.721 25.6758 218.342C25.824 215.868 25.9011 212.171 25.2387 210.839C24.2009 208.755 12.236 206.158 11.1982 206.416L8.07898 206.158Z" fill="#FFC393"/>
<path d="M25.4968 220.72C25.4968 220.72 22.6683 219.64 19.4142 218.327C15.3496 216.686 10.6187 214.682 9.89473 213.958C8.60082 212.654 8.33704 209.801 8.33704 209.801L25.6758 218.342C25.5969 219.721 25.4968 220.72 25.4968 220.72Z" fill="#F9B180"/>
<path d="M5.00546 207.336C-5.10323 199.731 -35.2175 175.965 -43.3988 157.02C-40.2969 153.441 -33.5885 152.324 -27.2307 152.168C-25.569 180.661 -3.51087 200.643 5.00546 207.336Z" fill="#F9B180"/>
<path d="M119.355 125.042L159.134 89.4227L162.222 94.427C162.222 94.427 145.615 134.142 139.114 145.059C132.614 155.98 116.234 159.879 116.234 159.879L115.714 138.301L119.355 125.042Z" fill="#FFC393"/>
<path d="M165.58 96.3949C165.906 95.7441 169.285 85.5392 169.025 85.4101C168.765 85.2811 161.539 82.5508 159.492 87.9209C157.888 92.1281 165.255 97.0438 165.58 96.3949Z" fill="#FFC393"/>
<path d="M180.039 71.6509L167.631 70.8697L166.005 103.184L178.409 103.965L180.039 71.6509Z" fill="white" stroke="#0F0F0F" stroke-width="2"/>
<mask id="path-26-inside-1" fill="white">
<path d="M166.616 106.257L177.493 106.943L177.903 106.75L179.357 105.027L164.956 104.12L166.229 106.015L166.616 106.257Z"/>
</mask>
<path d="M166.616 106.257L177.493 106.943L177.903 106.75L179.357 105.027L164.956 104.12L166.229 106.015L166.616 106.257Z" fill="#CDE2E7"/>
<path d="M177.493 106.943L177.705 107.395L177.589 107.45L177.461 107.442L177.493 106.943ZM177.903 106.75L178.285 107.072L178.215 107.156L178.115 107.203L177.903 106.75ZM179.357 105.027L179.388 104.528L180.379 104.59L179.739 105.349L179.357 105.027ZM164.956 104.12L164.541 104.399L163.976 103.557L164.988 103.621L164.956 104.12ZM166.229 106.015L165.963 106.438L165.873 106.382L165.814 106.293L166.229 106.015ZM166.647 105.758L177.524 106.444L177.461 107.442L166.584 106.756L166.647 105.758ZM177.28 106.49L177.691 106.297L178.115 107.203L177.705 107.395L177.28 106.49ZM177.521 106.428L178.975 104.704L179.739 105.349L178.285 107.072L177.521 106.428ZM179.325 105.526L164.925 104.619L164.988 103.621L179.388 104.528L179.325 105.526ZM165.371 103.841L166.644 105.736L165.814 106.293L164.541 104.399L165.371 103.841ZM166.494 105.591L166.881 105.833L166.35 106.681L165.963 106.438L166.494 105.591Z" fill="#0F0F0F" mask="url(#path-26-inside-1)"/>
<path d="M179.347 68.8232L168.595 68.1458L168.295 68.2877L167.195 69.5898L180.596 70.4336L179.635 69.0023L179.347 68.8232Z" fill="white" stroke="#0F0F0F" stroke-width="0.5"/>
<path d="M168.249 67.8749L179.727 68.597L179.881 68.441L179.904 67.9712L179.765 67.7979L168.289 67.0758L168.133 67.2318L168.11 67.6997L168.249 67.8749Z" fill="#0F0F0F"/>
<path d="M166.279 106.964L177.756 107.686L177.91 107.532L177.935 107.062L177.797 106.889L166.319 106.167L166.165 106.321L166.14 106.79L166.279 106.964Z" fill="#0F0F0F"/>
<path d="M166.08 82.9301L165.56 91.1827L179.963 91.9066L180.481 83.656L166.08 82.9301Z" fill="#708735"/>
<path d="M167.347 87.1334C167.137 90.4587 169.569 93.2833 172.777 93.4451C175.987 93.6068 178.757 91.0421 178.965 87.7188C179.175 84.3935 176.745 81.5688 173.536 81.4071C170.328 81.2453 167.555 83.8101 167.347 87.1334Z" fill="#708735"/>
<path d="M167.809 87.1565C167.617 90.2141 169.856 92.8154 172.808 92.9637C175.762 93.1139 178.311 90.7552 178.503 87.6937C178.694 84.636 176.457 82.0348 173.505 81.8865C170.553 81.7382 168.004 84.0988 167.809 87.1565Z" fill="#0F0F0F"/>
<path d="M181.086 70.715H181.085L181.084 70.714H181.086" fill="url(#paint0_linear)"/>
<path d="M181.085 70.715L166.683 69.8081L181.084 70.713L181.085 70.715Z" fill="url(#paint1_linear)"/>
<path d="M165.869 90.9475L166.041 87.5172L166.315 83.1922L168.637 83.3088C167.758 84.3341 167.19 85.6551 167.098 87.1178L165.869 90.9475ZM165.869 90.9475L168.154 91.0624M165.869 90.9475L168.154 91.0624M168.154 91.0624C167.406 89.9531 167.006 88.5802 167.098 87.1178L168.154 91.0624ZM179.307 83.8472L179.174 86.478C179.228 86.8858 179.243 87.3066 179.215 87.7348C179.192 88.1049 179.138 88.4674 179.057 88.8167L178.916 91.604L179.729 91.6446L179.995 87.4119L180.173 83.8911L179.307 83.8472Z" fill="white" stroke="#0F0F0F" stroke-width="0.5"/>
<path d="M173.064 93.4528C172.97 93.4528 172.874 93.449 172.777 93.4451C171.11 93.3604 169.654 92.5574 168.669 91.3386C167.756 90.2122 167.248 88.7296 167.348 87.1334C167.448 85.5353 168.139 84.1143 169.187 83.0861C170.255 82.0386 171.692 81.3994 173.247 81.3994C173.344 81.3994 173.44 81.4033 173.536 81.4071C175.204 81.4918 176.661 82.2947 177.647 83.5135C177.776 83.6714 177.895 83.837 178.007 84.0103L177.963 84.8922C177.144 83.1901 175.485 81.9867 173.505 81.8865C173.417 81.8827 173.328 81.8808 173.24 81.8808C170.401 81.8808 167.998 84.1894 167.81 87.1565C167.617 90.2142 169.857 92.8155 172.808 92.9637C172.897 92.9695 172.985 92.9715 173.074 92.9715C174.998 92.9715 176.721 91.9124 177.691 90.3047L177.647 91.1865C177.485 91.3906 177.312 91.5832 177.127 91.7661C176.06 92.8136 174.622 93.4528 173.064 93.4528ZM178.808 88.7816L178.924 86.4884C178.978 86.887 178.993 87.299 178.966 87.7188C178.943 88.0827 178.889 88.4389 178.808 88.7816Z" fill="#0F0F0F"/>
<path d="M177.514 87.9382C177.51 87.9382 177.508 87.9382 177.505 87.9382C177.485 87.9382 177.464 87.9363 177.443 87.9344C177.437 87.9344 177.433 87.9344 177.428 87.9344C177.42 87.9344 177.412 87.9325 177.404 87.9325C177.406 87.9305 177.408 87.9267 177.408 87.9247C177.42 87.9036 177.429 87.8843 177.439 87.8651C177.476 87.7977 177.51 87.738 177.547 87.6821C177.645 87.5339 177.745 87.4318 177.84 87.3625L177.813 87.8882C177.728 87.919 177.628 87.9382 177.514 87.9382Z" fill="url(#paint2_linear)"/>
<path d="M177.448 88.5544C177.406 88.5544 177.36 88.5506 177.312 88.5429C177.292 88.5409 177.271 88.5371 177.252 88.5332C177.246 88.5332 177.24 88.5313 177.235 88.5294C177.229 88.5294 177.221 88.5274 177.213 88.5255C177.215 88.5236 177.215 88.5217 177.217 88.5197C177.231 88.4986 177.244 88.4812 177.256 88.462C177.308 88.3888 177.358 88.3272 177.408 88.2713C177.554 88.1115 177.691 88.0249 177.808 87.9806L177.781 88.4793C177.691 88.5255 177.581 88.5544 177.448 88.5544Z" fill="url(#paint3_linear)"/>
<path d="M177.296 89.1513C177.221 89.1513 177.14 89.1397 177.052 89.1147C177.032 89.1109 177.013 89.1051 176.992 89.0974C176.986 89.0954 176.982 89.0935 176.977 89.0916C176.969 89.0896 176.963 89.0877 176.957 89.0858C176.959 89.0839 176.961 89.0819 176.961 89.08C176.977 89.0627 176.992 89.0454 177.005 89.0299C177.065 88.9645 177.123 88.9087 177.177 88.8605C177.414 88.6584 177.614 88.6064 177.756 88.6064C177.764 88.6064 177.77 88.6064 177.776 88.6064L177.756 88.9818C177.649 89.0742 177.496 89.1513 177.296 89.1513Z" fill="url(#paint4_linear)"/>
<path d="M178.654 91.8412L177.616 91.7892L177.647 91.1865C178.19 90.4953 178.594 89.6789 178.808 88.7816L178.654 91.8412ZM178.923 86.4884C178.8 85.5815 178.481 84.7381 178.007 84.0103L178.032 83.5328L179.07 83.5848L178.923 86.4884Z" fill="url(#paint5_linear)"/>
<path d="M177.647 91.1865L177.691 90.3046C178.153 89.5402 178.444 88.6526 178.504 87.6937C178.567 86.6867 178.367 85.7297 177.963 84.8921L178.007 84.0103C178.481 84.7381 178.8 85.5815 178.924 86.4884L178.808 88.7816C178.594 89.6789 178.19 90.4953 177.647 91.1865Z" fill="url(#paint6_linear)"/>
<path d="M177.691 90.3046L177.756 88.9818C177.922 88.8432 177.991 88.6661 177.983 88.6661C177.979 88.6564 177.904 88.6102 177.775 88.6064L177.781 88.4793C177.897 88.4235 177.981 88.3426 178.045 88.2617C178.157 88.1173 178.193 87.9709 178.187 87.9709C178.184 87.9632 178.124 87.9363 178.028 87.9363C177.968 87.9363 177.893 87.9459 177.808 87.9806L177.812 87.8882C177.987 87.8246 178.105 87.7072 178.18 87.5897C178.291 87.4164 178.315 87.2432 178.307 87.2432C178.303 87.2374 178.266 87.2258 178.207 87.2258C178.122 87.2258 177.989 87.2508 177.839 87.3625L177.962 84.8921C178.367 85.7297 178.567 86.6867 178.503 87.6937C178.444 88.6526 178.153 89.5402 177.691 90.3046Z" fill="url(#paint7_linear)"/>
<path d="M177.812 87.8882L177.839 87.3625C177.989 87.2509 178.122 87.2258 178.207 87.2258C178.266 87.2258 178.303 87.2374 178.307 87.2432C178.315 87.2432 178.291 87.4164 178.18 87.5897C178.105 87.7072 177.987 87.8246 177.812 87.8882Z" fill="url(#paint8_linear)"/>
<path d="M177.782 88.4793L177.809 87.9806C177.893 87.9459 177.968 87.9363 178.028 87.9363C178.124 87.9363 178.184 87.9632 178.188 87.9709C178.194 87.9709 178.157 88.1173 178.045 88.2617C177.982 88.3425 177.897 88.4234 177.782 88.4793Z" fill="url(#paint9_linear)"/>
<path d="M177.756 88.9818L177.776 88.6064C177.905 88.6102 177.98 88.6564 177.983 88.6661C177.991 88.6661 177.922 88.8432 177.756 88.9818Z" fill="url(#paint10_linear)"/>
<path d="M161.232 83.4577C161.232 83.4577 164.265 78.386 165.268 78.0394C166.267 77.6929 167.615 79.1042 170.958 79.5875C174.298 80.0747 171.82 83.5848 168.535 82.9455C165.249 82.3024 166.184 81.8807 166.184 81.8807C166.184 81.8807 167.58 88.8066 164.621 90.2141C161.66 91.6217 159.944 87.4049 159.944 87.4049L161.232 83.4577Z" fill="#FFC393"/>
<path d="M181.167 81.0817C182.068 81.4341 182.025 82.7222 181.423 83.4365C182.645 84.2202 181.471 86.6867 181.172 87.041C182.297 88.1674 180.941 89.8483 180.495 90.1622C181.095 91.4349 177.497 94.8391 177.271 93.0831C177.044 91.3271 178.261 90.27 178.261 90.27C178.261 90.27 176.524 91.0344 176.952 89.0935C177.377 87.1527 178.232 87.0988 178.232 87.0988C178.232 87.0988 176.909 87.5359 177.329 86.0359C177.751 84.536 178.552 84.3935 178.552 84.3935C178.552 84.3935 177.063 84.7093 177.597 82.9475C178.132 81.1857 180.479 80.816 181.167 81.0817Z" fill="#FFC393"/>
<path d="M114.676 141.218C114.216 141.218 113.758 141.197 113.304 141.156L115.934 128.808L116.792 134.378L115.714 138.301L115.784 141.177C115.414 141.204 115.044 141.218 114.676 141.218Z" fill="#F2F0F2"/>
<path d="M113.304 141.156C92.6358 139.267 77.6518 95.8711 90.7565 76.94C90.9914 76.6049 91.2167 76.293 91.442 75.9965C93.1345 77.4868 94.5613 78.875 95.1774 79.8031C96.997 82.5315 111.746 116.891 115.418 125.454V125.462L115.934 128.808L113.304 141.156Z" fill="#21BC73"/>
<path d="M115.784 141.177L115.714 138.301L116.793 134.378L117.796 140.898C117.122 141.037 116.452 141.129 115.784 141.177Z" fill="#FFC698"/>
<path d="M119.355 125.042C118.576 125.042 115.195 124 115.195 124C115.195 124 105.315 158.84 106.877 160.141C108.434 161.439 117.276 163.52 117.276 163.52L119.355 125.042Z" fill="#FFCE54"/>
<path d="M-7.32513 298.975L-1.47559 305.213C-1.47559 305.213 3.00883 304.628 3.39777 308.335C-1.08663 308.335 -17.0757 308.335 -17.0757 308.335L-13.1747 299.171L-7.32513 298.975Z" fill="#E2BF98"/>
<path d="M48.6369 299.171C46.2974 302.68 45.5176 308.335 45.5176 308.335H67.1618C67.1618 308.335 64.4334 302.485 60.1415 303.752C55.8535 305.021 51.9525 299.171 51.9525 299.171H48.6369Z" fill="#E2BF98"/>
<defs>
<linearGradient id="paint0_linear" x1="180.689" y1="79.6116" x2="173.094" y2="79.1842" gradientUnits="userSpaceOnUse">
<stop stop-color="#FFFCF1"/>
<stop offset="0.471429" stop-color="#CCCCCC"/>
<stop offset="1" stop-color="#E6EAF1"/>
</linearGradient>
<linearGradient id="paint1_linear" x1="180.325" y1="87.8284" x2="165.715" y2="87.006" gradientUnits="userSpaceOnUse">
<stop stop-color="#D7E8EB"/>
<stop offset="0.471429" stop-color="#CDE2E7"/>
<stop offset="1" stop-color="#D2E5EB"/>
</linearGradient>
<linearGradient id="paint2_linear" x1="180.325" y1="87.8285" x2="165.715" y2="87.0061" gradientUnits="userSpaceOnUse">
<stop stop-color="#F1EF75"/>
<stop offset="0.471429" stop-color="#EDEB5D"/>
<stop offset="1" stop-color="#EFED75"/>
</linearGradient>
<linearGradient id="paint3_linear" x1="180.325" y1="87.8285" x2="165.714" y2="87.0061" gradientUnits="userSpaceOnUse">
<stop stop-color="#F1EF75"/>
<stop offset="0.471429" stop-color="#EDEB5D"/>
<stop offset="1" stop-color="#EFED75"/>
</linearGradient>
<linearGradient id="paint4_linear" x1="180.325" y1="87.8284" x2="165.715" y2="87.0061" gradientUnits="userSpaceOnUse">
<stop stop-color="#F1EF75"/>
<stop offset="0.471429" stop-color="#EDEB5D"/>
<stop offset="1" stop-color="#EFED75"/>
</linearGradient>
<linearGradient id="paint5_linear" x1="180.325" y1="87.8285" x2="165.715" y2="87.0062" gradientUnits="userSpaceOnUse">
<stop stop-color="#A4B175"/>
<stop offset="0.471429" stop-color="#8D9F5D"/>
<stop offset="1" stop-color="#98AA75"/>
</linearGradient>
<linearGradient id="paint6_linear" x1="180.325" y1="87.8285" x2="165.715" y2="87.0062" gradientUnits="userSpaceOnUse">
<stop stop-color="#A4B175"/>
<stop offset="0.471429" stop-color="#8D9F5D"/>
<stop offset="1" stop-color="#98AA75"/>
</linearGradient>
<linearGradient id="paint7_linear" x1="180.325" y1="87.8285" x2="165.715" y2="87.0062" gradientUnits="userSpaceOnUse">
<stop stop-color="#B4C57D"/>
<stop offset="0.471429" stop-color="#A1B867"/>
<stop offset="1" stop-color="#ABC17D"/>
</linearGradient>
<linearGradient id="paint8_linear" x1="180.325" y1="87.8285" x2="165.715" y2="87.0063" gradientUnits="userSpaceOnUse">
<stop stop-color="#F4F291"/>
<stop offset="0.471429" stop-color="#F1EF7D"/>
<stop offset="1" stop-color="#F2F191"/>
</linearGradient>
<linearGradient id="paint9_linear" x1="180.325" y1="87.8285" x2="165.715" y2="87.0061" gradientUnits="userSpaceOnUse">
<stop stop-color="#F4F291"/>
<stop offset="0.471429" stop-color="#F1EF7D"/>
<stop offset="1" stop-color="#F2F191"/>
</linearGradient>
<linearGradient id="paint10_linear" x1="180.325" y1="87.8285" x2="165.715" y2="87.0062" gradientUnits="userSpaceOnUse">
<stop stop-color="#F4F291"/>
<stop offset="0.471429" stop-color="#F1EF7D"/>
<stop offset="1" stop-color="#F2F191"/>
</linearGradient>
</defs>
</svg>
