<svg width="210" height="252" viewBox="0 0 210 252" fill="none" xmlns="http://www.w3.org/2000/svg">
<path d="M95.3107 176.387V182.451H160.535L162.556 176.387H95.3107Z" fill="white" stroke="#2E343B" stroke-width="2"/>
<path d="M105.869 208.806L109.996 182.74H103.291L101.394 205.154L101.394 205.154L97.5952 250.189H99.317L105.869 208.806L106.856 208.962L105.869 208.806Z" fill="white" stroke="#2E343B" stroke-width="2"/>
<path d="M145.036 182.74L148.658 205.595L148.658 205.595L155.715 250.189H157.437L154.061 210.236L154.061 210.235L151.743 182.74H145.036Z" fill="white" stroke="#2E343B" stroke-width="2"/>
<path d="M112.998 182.74L109.494 250.189H109.788L116.358 182.74H112.998Z" fill="white" stroke="#2E343B" stroke-width="2"/>
<path d="M138.68 182.74L145.25 250.189H145.544L142.039 182.74H138.68Z" fill="white" stroke="#2E343B" stroke-width="2"/>
<path d="M150.198 217.414V216.456H104.839V218.584L150.198 217.414Z" fill="white" stroke="#2E343B" stroke-width="2"/>
<path d="M105.764 209.467C104.375 208.62 102.823 207.678 101.26 206.745L97.5952 250.189H99.317L105.764 209.467Z" fill="white" stroke="#2E343B" stroke-width="2"/>
<mask id="path-8-inside-1" fill="white">
<path d="M155.057 210.151L158.524 251.189H154.861L147.67 205.752L155.057 210.151Z"/>
</mask>
<path d="M155.057 210.151L158.524 251.189H154.861L147.67 205.752L155.057 210.151Z" fill="white"/>
<path d="M158.524 251.189L160.517 251.021L160.701 253.189H158.524V251.189ZM154.861 251.189V253.189H153.152L152.885 251.502L154.861 251.189ZM147.67 205.752L145.695 206.064L145.028 201.85L148.694 204.033L147.67 205.752ZM157.05 209.983L160.517 251.021L156.532 251.358L153.064 210.32L157.05 209.983ZM158.524 253.189H154.861V249.189H158.524V253.189ZM152.885 251.502L145.695 206.064L149.646 205.439L156.836 250.877L152.885 251.502ZM148.694 204.033L156.081 208.433L154.034 211.87L146.647 207.47L148.694 204.033Z" fill="#2E343B" mask="url(#path-8-inside-1)"/>
<path d="M199.139 181.233C188.226 207.49 169.747 244.411 169.747 244.411H165.533C165.533 244.411 166.961 220.712 169.828 200.138C171.308 189.48 173.178 179.667 175.429 174.409C171.689 176.212 164.887 177.619 156.37 177.343C146.116 177.012 98.4631 177.343 98.4631 177.343C98.4631 177.343 99.1985 179.54 98.4631 185.772C98.2013 188.023 96.9776 196.29 95.5254 205.943C92.9608 223.013 89.6683 244.411 89.6683 244.411H86.7361C86.7361 244.411 72.6265 182.268 69.1316 166.121C68.7639 164.427 68.515 163.239 68.4129 162.682C67.3136 156.819 70.6116 149.122 88.2031 146.189H164.068C164.068 146.189 204.748 146.923 206.872 156.454C207.541 159.443 204.131 169.221 199.139 181.233Z" fill="#3FD28D"/>
<path d="M199.139 181.233C201.123 176.461 202.855 172.041 204.183 168.258C202.859 172.041 201.124 176.461 199.139 181.233ZM87.7406 146.269C87.8929 146.242 88.047 146.216 88.203 146.189C88.047 146.216 87.8947 146.242 87.7406 146.269Z" fill="#B7BCC7"/>
<path d="M95.5253 205.943C93.8651 190.959 84.5615 164.253 73.9133 164.253C72.3404 164.253 70.7397 164.834 69.1315 166.121C68.7638 164.427 68.515 163.239 68.4128 162.682C68.3107 162.132 68.2439 161.568 68.229 160.988C76.9068 159.412 85.7407 154.141 85.8948 146.622C86.4909 146.5 87.1056 146.38 87.7407 146.269C87.8948 146.242 88.0471 146.216 88.2031 146.189C100.664 150.588 105.427 161.217 114.589 163.781C119.366 165.119 124.003 165.718 128.437 165.718C145.823 165.718 160.075 156.489 167.206 146.294C168.876 146.363 171.115 146.477 173.683 146.659C173.487 157.785 193.048 163.421 205.004 165.833C204.751 166.608 204.476 167.419 204.183 168.258C202.855 172.041 201.123 176.461 199.139 181.233C198.179 180.793 197.277 180.229 196.443 179.54C194.838 178.214 193.171 177.625 191.475 177.625C183.734 177.625 175.414 189.898 169.828 200.138C171.308 189.48 173.178 179.667 175.429 174.409C172.007 176.058 166.021 177.376 158.506 177.376C157.808 177.376 157.096 177.365 156.37 177.343C152.952 177.231 145.379 177.197 136.799 177.197C119.642 177.197 98.4631 177.343 98.4631 177.343C98.4631 177.343 98.7899 178.318 98.7899 180.81C98.7899 181.551 98.7621 182.426 98.6878 183.451C98.6358 184.153 98.5633 184.925 98.4631 185.772C98.2012 188.023 96.9775 196.29 95.5253 205.943Z" fill="#3FD28D"/>
<path d="M89.6682 244.411L91.1353 251.189H68.2216L86.736 244.411H89.6682Z" fill="#96492C"/>
<path d="M165.533 244.411V251.189H183.492C183.492 251.189 180.01 249.174 176.528 248.625C173.046 248.073 169.746 244.411 169.746 244.411H165.533Z" fill="#96492C"/>
<path d="M187.521 113.206C187.521 113.206 182.727 116.936 177.142 126.496C175.536 129.227 173.874 132.44 172.238 136.171C171.711 137.373 171.183 138.641 170.661 139.96C164.769 154.92 141.937 171.441 114.589 163.781C105.426 161.217 100.663 150.588 88.2025 146.189C87.7476 142.686 87.6083 139.673 87.3149 136.741C86.8024 131.7 85.8274 126.884 81.9723 120.243C80.8005 118.212 79.3539 116.006 77.573 113.573L187.521 113.206Z" fill="#FF4747"/>
<path d="M177.143 126.496C153.277 124.912 99.0741 121.326 81.9729 120.243C81.3749 119.207 80.7064 118.127 79.958 116.994H183.793C181.971 119.123 179.635 122.229 177.143 126.496Z" fill="#FF4747"/>
<path d="M137.59 35.5097C150.751 35.142 161.989 37.831 161.989 37.831L157.104 47.6026L134.747 46.1374L137.59 35.5097Z" fill="#C49B6C"/>
<path d="M134.379 43.6955C135.846 42.5943 162.968 35.5097 162.968 35.5097V66.6504L131.204 90.4716L134.379 43.6955Z" fill="#EBA87F"/>
<path d="M138.411 107.341L90.2402 102.98L49.3543 99.278L40.9253 69.9589L40.5594 68.4942C45.8872 64.8803 51.2392 61.8088 56.5224 59.1941C89.0239 43.0975 119.295 44.3436 130.335 45.5302C133.178 45.8366 134.745 46.1375 134.745 46.1375L142.077 58.598C142.077 58.598 136.354 71.7397 135.553 83.4839C135.518 83.9888 135.496 84.4885 135.481 84.9862C135.854 84.3769 136.22 83.7921 136.588 83.2126C147.713 65.6066 155.271 60.7986 155.271 60.7986L193.019 55.6658C193.019 55.6658 195.227 57.287 198.209 59.6101C203.377 63.6342 210.853 69.7696 213.177 73.2595C216.842 78.7557 138.411 107.341 138.411 107.341Z" fill="#FF4747"/>
<path d="M135.481 84.9862C135.496 84.4885 135.518 83.9888 135.553 83.4839C135.906 83.404 136.25 83.3149 136.588 83.2126C136.22 83.7921 135.854 84.3769 135.481 84.9862Z" fill="#C87A5F"/>
<path d="M135.626 104.351C134.595 104.351 132.887 104.08 131.293 103.776C130.159 101.473 128.788 99.3686 127.418 98.9116C127.135 98.8188 126.799 98.7746 126.421 98.7746C124.261 98.7746 120.719 100.173 117.888 101.477V85.7029C124.19 85.5543 130.148 84.8492 135.553 83.4839C135.518 83.9888 135.496 84.4886 135.481 84.9862C135.854 84.3769 136.22 83.7922 136.588 83.2126C144.248 81.1387 150.734 77.6785 155.396 72.5253C159.249 68.2658 162.41 66.5743 164.98 66.5743C170.371 66.5743 173.165 74.0168 174.332 80.784C171.531 82.0926 168.688 83.5398 165.884 85.0516C161.091 87.6325 156.408 90.3955 152.242 93.0048C143.184 98.6708 136.58 103.56 136.58 104.043C136.58 104.264 136.213 104.351 135.626 104.351ZM95.3248 91.0143C89.5421 87.3836 82.8419 83.5508 75.9246 80.3582C82.3498 81.9708 88.8791 83.2852 95.3248 84.21V91.0143ZM185.206 76.4012C189.494 70.7873 194.317 64.585 198.209 59.6101C202.215 62.7299 207.609 67.1182 210.915 70.5589C209.921 70.3862 208.816 70.3048 207.637 70.3048C201.227 70.3048 192.619 72.7037 187.756 75.6475C186.926 75.8701 186.075 76.1227 185.206 76.4012Z" fill="#FF4747"/>
<path d="M79.3285 67.0341C69.5271 67.0341 61.0239 64.624 56.5225 59.1941C72.4464 51.3074 87.8373 47.5841 100.692 45.9759C100.454 49.0177 99.8745 59.7772 98.9813 61.2424L97.154 64.2359C97.0407 64.4235 96.933 64.611 96.8309 64.8023C90.9088 66.2543 84.9107 67.0341 79.3285 67.0341ZM113.624 58.6723C113.368 56.9137 113.15 54.5442 112.974 52.2805C112.747 49.4021 112.588 46.6964 112.495 45.6435C112.485 45.5488 112.478 45.4689 112.471 45.4021L112.385 45.0084C114.305 44.9304 116.129 44.897 117.845 44.897C123.145 44.897 127.412 45.2164 130.335 45.5302C126.517 50.7057 120.567 55.1718 113.624 58.6723Z" fill="#FF4747"/>
<path d="M187.745 75.6547C194.118 71.7919 206.946 68.8614 212.811 71.0586C218.673 73.2595 226.003 98.9116 226.003 104.776C226.003 110.641 219.774 110.641 219.774 110.641L187.745 75.6547Z" fill="#FFCE54"/>
<path d="M56.6839 75.8237C48.9884 63.7289 38.3607 65.196 32.1304 71.0586C25.8982 76.9227 22.6002 98.5461 28.8305 110.641C41.291 104.043 56.6839 75.8237 56.6839 75.8237Z" fill="#FFCE54"/>
<path d="M219.774 110.641C209.145 110.641 129.616 110.641 129.616 110.641L127.417 102.943C127.417 102.943 136.58 105.144 136.58 104.043C136.58 103.56 143.183 98.6707 152.242 93.0048C156.407 90.3955 161.091 87.6325 165.884 85.0516C174.342 80.4924 183.146 76.5273 190.086 75.0904C209.51 71.0586 220.14 86.817 219.774 110.641Z" fill="#FFC393"/>
<path d="M219.774 110.641C210.656 110.641 150.842 110.641 134.014 110.641C134.014 110.641 132.888 107.012 131.293 103.775C132.886 104.08 134.595 104.351 135.625 104.351C136.212 104.351 136.58 104.264 136.58 104.043C136.58 103.56 143.183 98.6707 152.242 93.0048C146.456 101.304 165.369 104.816 183.828 104.816C197.042 104.816 210.023 103.016 213.542 99.8888C220.74 93.493 197.839 84.8042 178.032 84.8042C173.633 84.8042 169.388 85.2328 165.657 86.21C165.722 85.8196 165.804 85.4315 165.884 85.0516C174.342 80.4924 183.146 76.5273 190.086 75.0904C192.129 74.6668 194.073 74.4607 195.919 74.4607C211.334 74.4607 219.783 88.7742 219.783 109.46C219.783 109.851 219.78 110.245 219.774 110.641Z" fill="#FAA879"/>
<mask id="path-27-inside-2" fill="white">
<path d="M42.132 113.819L28.9379 251.189H32.2378L52.1784 113.819H42.132Z"/>
</mask>
<path d="M42.132 113.819L28.9379 251.189H32.2378L52.1784 113.819H42.132Z" fill="white"/>
<path d="M28.9379 251.189V253.189H26.7366L26.947 250.998L28.9379 251.189ZM32.2378 251.189L34.217 251.476L33.9684 253.189H32.2378V251.189ZM52.1784 113.819V111.819H54.4897L54.1577 114.106L52.1784 113.819ZM44.1228 114.01L30.9287 251.38L26.947 250.998L40.1411 113.627L44.1228 114.01ZM28.9379 249.189H32.2378V253.189H28.9379V249.189ZM30.2585 250.902L50.1992 113.531L54.1577 114.106L34.217 251.476L30.2585 250.902ZM52.1784 115.819H42.132V111.819H52.1784V115.819Z" fill="#2E343B" mask="url(#path-27-inside-2)"/>
<path d="M261.243 111.641H1.56292L3.57204 115.994H260.573L261.243 111.641Z" fill="white" stroke="#2E343B" stroke-width="2"/>
<mask id="path-30-inside-3" fill="white">
<path d="M18.5688 113.819L5.37653 251.189H8.67459L28.6152 113.819H18.5688Z"/>
</mask>
<path d="M18.5688 113.819L5.37653 251.189H8.67459L28.6152 113.819H18.5688Z" fill="white"/>
<path d="M5.37653 251.189V253.189H3.17526L3.38569 250.998L5.37653 251.189ZM8.67459 251.189L10.6538 251.476L10.4052 253.189H8.67459V251.189ZM28.6152 113.819V111.819H30.9265L30.5945 114.106L28.6152 113.819ZM20.5596 114.01L7.36737 251.38L3.38569 250.998L16.5779 113.627L20.5596 114.01ZM5.37653 249.189H8.67459V253.189H5.37653V249.189ZM6.69533 250.902L26.636 113.531L30.5945 114.106L10.6538 251.476L6.69533 250.902ZM28.6152 115.819H18.5688V111.819H28.6152V115.819Z" fill="#2E343B" mask="url(#path-30-inside-3)"/>
<path d="M212.077 45.1606C220.629 43.4503 224.783 37.831 221.36 31.2349C217.94 24.6369 192.042 8.99897 185.2 9.24409C178.359 9.48922 160.114 14.4846 163.211 19.7492C157.835 23.9052 152.704 44.4271 151.239 57.1328C149.772 69.8385 155.639 88.1621 159.302 82.0542C161.746 88.8954 169.808 88.6516 173.228 82.7875C179.093 85.2293 190.82 79.3665 193.264 75.9462C195.707 72.5253 198.149 64.2192 198.149 64.2192L212.077 45.1606Z" fill="#434752"/>
<path d="M142.076 58.598C133.647 57.4987 126.931 66.6504 126.931 66.6504C126.931 66.6504 123.753 48.4253 124.851 44.8988C125.95 41.3742 137.59 35.5098 137.59 35.5098C137.59 35.5098 136.214 45.4058 142.076 58.598Z" fill="#FFCE54"/>
<path d="M212.077 45.1625C212.077 45.1625 207.187 57.6249 205.237 59.5748L205.21 59.6026C203.208 61.5748 195.702 66.6756 193.752 69.1029C192.418 70.767 186.561 67.6805 180.799 62.8357C178.095 60.5627 175.414 57.909 173.228 55.1755C166.391 46.6295 165.165 42.4735 166.142 39.051C167.122 35.6341 177.869 22.9247 186.181 21.9498C194.483 20.9749 207.679 30.9879 212.077 45.1625Z" fill="#FFC393"/>
<path d="M205.21 59.6026C203.208 61.5748 195.702 66.6756 193.752 69.1029C192.419 70.767 186.562 67.6805 180.799 62.8357L193.936 48.2488C193.936 48.2488 200.686 53.805 205.21 59.6026Z" fill="#EBA87F"/>
<path d="M198.15 47.6026C195.518 48.9192 202.304 60.3083 205.236 59.5767C208.168 58.8431 201.57 45.8923 198.15 47.6026Z" fill="#434752"/>
<path d="M193.752 44.6723C192.34 48.2025 179.826 38.5627 181.046 35.6323C182.268 32.7001 195.219 41.0084 193.752 44.6723Z" fill="#434752"/>
<path d="M178.359 42.7168C178.359 42.7168 175.429 52.9787 185.444 49.0697C179.093 49.6193 178.359 42.7168 178.359 42.7168Z" fill="#272F44"/>
<path d="M192.471 55.2684C192.471 55.2684 189.537 65.5317 199.555 61.6212C193.203 62.1728 192.471 55.2684 192.471 55.2684Z" fill="#272F44"/>
<path d="M193.936 48.2452C189.447 57.9574 181.475 65.8365 179.002 66.477C176.528 67.1197 174.42 57.04 174.786 55.7587C175.152 54.4773 193.936 48.2452 193.936 48.2452Z" fill="#FFC393"/>
<path d="M167.822 66.754C175.152 67.1197 180.01 71.1514 181.291 73.7158C182.942 68.128 175.336 64.0948 167.822 66.754Z" fill="#ED8869"/>
<path d="M199.251 15.5357C204.014 24.3324 209.511 33.1272 214.642 33.311C219.774 33.4949 230.768 30.195 236.449 34.0446C232.051 26.7131 215.009 21.584 215.009 21.584L199.251 15.5357Z" fill="#3FD28D"/>
<path d="M161.746 36.6704C162.233 26.8375 156.675 23.1105 153.193 25.1253C149.713 27.142 150.201 40.1523 155.698 41.9852C161.196 43.8162 161.746 36.6704 161.746 36.6704Z" fill="#FFC393"/>
<path d="M97.491 65.158L97.4923 65.1556C97.5869 64.9783 97.6876 64.8029 97.795 64.6251C97.7953 64.6246 97.7955 64.6241 97.7958 64.6237L99.6213 61.6332L99.6215 61.6328C99.8024 61.336 99.9301 60.9004 100.032 60.4594C100.14 59.9906 100.241 59.4155 100.334 58.7746C100.521 57.4913 100.686 55.8974 100.829 54.2661C101.022 52.0693 101.18 49.7638 101.298 48.0392C101.354 47.2118 101.401 46.5181 101.439 46.0343L101.439 46.033C101.456 45.8156 101.47 45.6445 101.483 45.5232L103.732 35.3655L103.934 34.4533H103H102.248C102.099 34.4533 102.008 34.3417 102.008 34.234V30.2563C102.008 30.1588 102.094 30.0443 102.248 30.0443H110.966C111.121 30.0443 111.208 30.1606 111.208 30.2563V34.234C111.208 34.3398 111.117 34.4533 110.966 34.4533H110.214H109.28L109.461 35.2719L109.459 35.4228L109.45 36.0821C109.442 36.6516 109.431 37.4684 109.419 38.4579C109.395 40.4369 109.366 43.1073 109.347 45.8722C109.308 51.3689 109.307 57.331 109.466 58.8915L109.466 58.892C109.558 59.7812 109.866 60.5388 110.269 61.2648C110.543 61.7588 110.881 62.2725 111.232 62.8045C111.379 63.0275 111.528 63.2536 111.675 63.4829C112.69 65.063 113.846 67.1151 114.596 70.5338L114.596 70.5344C114.73 71.1425 114.84 71.9264 114.927 72.8598H101.362C101.353 70.6425 101.349 69.1679 101.349 68.8955C101.349 68.8397 101.369 68.7032 101.454 68.4602C101.535 68.229 101.658 67.9489 101.817 67.623C102.137 66.9695 102.575 66.1945 103.054 65.3509L103.109 65.2523C104.027 63.6332 105.097 61.7454 105.507 60.2735M97.491 65.158L104.784 60.0725M97.491 65.158C96.5632 66.8805 96.0746 68.8011 96.0746 70.7503V72.8598L97.491 65.158ZM105.507 60.2735L104.784 60.0725M105.507 60.2735C105.507 60.2736 105.507 60.2738 105.507 60.2739L104.784 60.0725M105.507 60.2735C105.627 59.8411 105.703 59.1509 105.756 58.3412C105.81 57.5094 105.843 56.4845 105.862 55.3435C105.898 53.0604 105.874 50.2843 105.825 47.6018C105.777 44.918 105.704 42.3221 105.643 40.3976C105.613 39.4352 105.585 38.6404 105.566 38.086C105.556 37.8088 105.548 37.5918 105.542 37.4439L105.536 37.2751L105.534 37.2318L105.534 37.2208L105.534 37.218L105.534 37.2173C105.534 37.2171 105.534 37.217 104.784 37.2461M104.784 60.0725C105.287 58.2695 105.139 49.2264 104.971 43.0782C105.05 42.2931 105.125 41.5536 105.191 40.8828C105.293 39.8607 105.378 38.9974 105.438 38.3749C105.467 38.0639 105.491 37.8117 105.507 37.6294C105.521 37.4726 105.534 37.3172 105.534 37.2461H104.784M104.784 37.2461C104.035 37.2751 104.035 37.2751 104.035 37.2753L104.035 37.2759L104.035 37.2786L104.035 37.2894L104.037 37.3321L104.043 37.4998C104.049 37.6469 104.057 37.8631 104.067 38.1394C104.086 38.692 104.114 39.4848 104.144 40.4449C104.168 41.2179 104.195 42.0992 104.22 43.0507L104.784 37.2461ZM110.945 35.0415L110.945 35.0394L110.214 35.1137L109.462 35.1903L110.212 35.2015C110.213 35.2015 110.214 35.2015 110.214 35.2015C110.217 35.2016 110.219 35.2016 110.222 35.2016L110.945 35.0415ZM110.945 35.0415L110.946 35.0412L110.966 35.1308L110.982 35.2032C110.982 35.2032 110.981 35.2032 110.981 35.2032L110.966 35.1374L110.945 35.0415ZM103 35.2033L102.267 35.0412L102.248 35.1308L102.232 35.2032C102.237 35.2033 102.242 35.2033 102.248 35.2033H103ZM103 35.2033V35.9533H102.834L103 35.2033ZM98.9811 61.2424C99.7286 60.0163 100.256 52.2819 100.548 48.0078C100.605 47.1742 100.653 46.4723 100.691 45.9759C100.71 45.7326 100.727 45.5376 100.742 45.4021L98.9811 61.2424ZM98.9811 61.2424L97.1538 64.2359L98.9811 61.2424ZM112.47 45.4021L112.47 45.4021L112.383 45.0088L110.92 38.3982C110.92 38.3958 110.92 38.3934 110.92 38.3911L112.385 45.0084L112.47 45.4021ZM112.47 45.4021L112.47 45.4021L112.47 45.4039C112.475 45.4477 112.48 45.4991 112.486 45.5564C112.489 45.5841 112.492 45.6132 112.495 45.6435C112.492 45.6192 112.49 45.596 112.488 45.5736C112.482 45.5095 112.476 45.4532 112.471 45.4039C112.471 45.4033 112.471 45.4027 112.47 45.4021ZM114.598 102.245H112.869C112.992 102.339 113.104 102.425 113.207 102.505C113.345 102.612 113.465 102.705 113.566 102.783C113.592 102.769 113.619 102.755 113.647 102.74C113.891 102.611 114.214 102.441 114.598 102.245ZM110.169 38.4686C110.169 38.4709 110.169 38.4733 110.169 38.4757L109.48 35.3636L109.481 35.3633L109.482 35.3655L110.169 38.4686ZM101.965 58.4403C101.965 58.4402 101.965 58.4401 102.613 58.8171C101.867 58.7404 101.867 58.7404 101.867 58.7402L101.867 58.7395L101.868 58.7366L101.869 58.7252L101.874 58.6799L101.884 58.5806C101.896 58.5591 101.907 58.5399 101.917 58.5232L101.953 58.4617L101.962 58.4457L101.964 58.4416L101.965 58.4406L101.965 58.4403ZM115.743 73.6098H114.99H115.743Z" fill="white" stroke="white" stroke-width="1.5"/>
<path d="M96.3246 100.495H116.887V74.6097H96.3246V100.495Z" fill="white" stroke="#0F0F0F" stroke-width="2"/>
<path d="M97.694 73.6584V69.0159H97.8797V67.5303H98.0654V67.1589H98.2511V66.6018H98.4368V66.2304H98.6225V65.8589H98.8082V65.4875H98.9939V65.1161H99.1796V64.7447H99.3653V64.3733H99.551V64.0019H99.7367V63.6305H99.9224V63.2591H100.108V62.8877H100.294V62.5163H100.479V62.1449H100.665V61.9592H100.851V61.5878H101.037V61.2164H101.222V60.845H101.408V60.4736H101.594V60.1022H101.779V59.9165H101.965V59.5451H102.151V59.1737H102.337V58.8023H102.522V57.8738H102.708V56.0168H102.894V54.1597H103.079V52.3027H103.265V50.6314H103.451V48.7744H103.636V46.9174H103.822V45.0604H104.008V43.2034H104.194V41.3463H104.379V39.4893H104.565V37.6323H104.751V37.0752H104.936V41.7177H105.122V51.1885H105.308V54.1597H105.122V59.1737H104.936V60.2879H104.751V60.845H104.565V61.2164H104.379V61.7735H104.194V62.1449H104.008V62.5163H103.822V62.8877H103.636V63.2591H103.451V63.4448H103.265V63.8162H103.079V64.1876H102.894V64.559H102.708V64.9304H102.522V65.1161H102.337V65.4875H102.151V65.8589H101.965V66.2304H101.779V66.6018H101.594V66.9732H101.408V67.1589H101.222V67.716H101.037V68.0874H100.851V68.6445H100.665V73.6584" fill="white"/>
<path d="M117.887 85.7028V73.6097H117.885V70.7503C117.885 69.43 117.677 68.1228 117.271 66.873C117.677 68.1208 117.887 69.4279 117.887 70.7503V85.7028ZM115.683 63.6231L114.233 61.2424C114.147 61.1031 114.065 60.8821 113.987 60.5906C114.065 60.8803 114.147 61.1031 114.233 61.2405L115.683 63.6231Z" fill="#872E12"/>
<path d="M112.974 52.2804C112.747 49.4021 112.588 46.6983 112.495 45.6435C112.588 46.6964 112.747 49.4021 112.974 52.2804Z" fill="#91431B"/>
<mask id="path-49-inside-4" fill="white">
<path d="M115.364 102.697C115.375 102.314 115.388 101.913 115.403 101.495H117.848C116.916 101.924 116.062 102.342 115.364 102.697ZM117.885 73.6098H115.742C115.646 72.3026 115.51 71.2001 115.328 70.3732C113.779 63.3111 110.522 61.8329 110.212 58.8153C109.904 55.7995 110.212 35.2015 110.212 35.2015L112.47 45.4039C112.478 45.4689 112.485 45.5506 112.494 45.6435C112.587 46.6983 112.747 49.4021 112.974 52.2804C113.228 55.5507 113.568 59.0456 113.987 60.5906C114.065 60.8821 114.147 61.1031 114.233 61.2424L115.683 63.6231L116.058 64.2396C116.565 65.0734 116.97 65.9576 117.271 66.8731C117.677 68.1228 117.885 69.43 117.885 70.7503V73.6098Z"/>
</mask>
<path d="M115.364 102.697C115.375 102.314 115.388 101.913 115.403 101.495H117.848C116.916 101.924 116.062 102.342 115.364 102.697ZM117.885 73.6098H115.742C115.646 72.3026 115.51 71.2001 115.328 70.3732C113.779 63.3111 110.522 61.8329 110.212 58.8153C109.904 55.7995 110.212 35.2015 110.212 35.2015L112.47 45.4039C112.478 45.4689 112.485 45.5506 112.494 45.6435C112.587 46.6983 112.747 49.4021 112.974 52.2804C113.228 55.5507 113.568 59.0456 113.987 60.5906C114.065 60.8821 114.147 61.1031 114.233 61.2424L115.683 63.6231L116.058 64.2396C116.565 65.0734 116.97 65.9576 117.271 66.8731C117.677 68.1228 117.885 69.43 117.885 70.7503V73.6098Z" fill="white"/>
<path d="M115.364 102.697L116.043 104.034L113.791 105.178L113.864 102.653L115.364 102.697ZM115.403 101.495L113.903 101.441L113.955 99.9947H115.403V101.495ZM117.848 101.495V99.9947L118.476 102.857L117.848 101.495ZM115.742 73.6098V75.1098H114.349L114.246 73.7203L115.742 73.6098ZM115.328 70.3732L113.863 70.6956L113.863 70.6945L115.328 70.3732ZM110.212 58.8153L108.72 58.9686L108.72 58.9678L110.212 58.8153ZM110.212 35.2015L108.712 35.179L111.677 34.8773L110.212 35.2015ZM112.47 45.4039L113.935 45.0798L113.952 45.156L113.961 45.2336L112.47 45.4039ZM112.494 45.6435L113.987 45.4942L113.988 45.5031L113.989 45.5119L112.494 45.6435ZM112.974 52.2804L114.469 52.1627L114.469 52.1641L112.974 52.2804ZM113.987 60.5906L115.435 60.1974L115.437 60.2029L113.987 60.5906ZM114.233 61.2424L115.511 60.4582L115.514 60.462L114.233 61.2424ZM115.683 63.6231L116.964 62.8427L116.964 62.8435L115.683 63.6231ZM116.058 64.2396L117.34 63.46L117.34 63.4603L116.058 64.2396ZM117.271 66.8731L118.696 66.4048L118.697 66.4089L117.271 66.8731ZM113.864 102.653C113.875 102.267 113.889 101.862 113.903 101.441L116.902 101.548C116.887 101.963 116.874 102.361 116.863 102.74L113.864 102.653ZM115.403 99.9947H117.848V102.995H115.403V99.9947ZM118.476 102.857C117.562 103.278 116.725 103.687 116.043 104.034L114.684 101.359C115.398 100.997 116.269 100.571 117.221 100.132L118.476 102.857ZM117.885 75.1098H115.742V72.1098H117.885V75.1098ZM114.246 73.7203C114.152 72.4409 114.023 71.4202 113.863 70.6956L116.793 70.0508C116.998 70.98 117.14 72.1643 117.238 73.4992L114.246 73.7203ZM113.863 70.6945C113.138 67.388 112.027 65.419 111.044 63.8882C110.57 63.1503 110.017 62.3573 109.613 61.6283C109.181 60.8496 108.825 59.9926 108.72 58.9686L111.704 58.6619C111.754 59.1468 111.922 59.6061 112.237 60.174C112.579 60.7916 112.995 61.3753 113.568 62.2669C114.678 63.9952 115.97 66.2962 116.793 70.0518L113.863 70.6945ZM108.72 58.9678C108.555 57.3547 108.558 51.3338 108.597 45.867C108.616 43.1003 108.645 40.4286 108.669 38.4488C108.681 37.4588 108.692 36.6416 108.7 36.0718C108.704 35.7869 108.707 35.5639 108.709 35.4119C108.71 35.336 108.711 35.2778 108.711 35.2386C108.712 35.219 108.712 35.2042 108.712 35.1942C108.712 35.1892 108.712 35.1854 108.712 35.1829C108.712 35.1816 108.712 35.1807 108.712 35.18C108.712 35.1797 108.712 35.1795 108.712 35.1793C108.712 35.1791 108.712 35.179 110.212 35.2015C111.712 35.2239 111.712 35.224 111.712 35.2241C111.712 35.2243 111.712 35.2245 111.712 35.2248C111.712 35.2254 111.712 35.2263 111.712 35.2276C111.712 35.23 111.712 35.2337 111.712 35.2387C111.712 35.2485 111.711 35.2632 111.711 35.2827C111.711 35.3216 111.71 35.3795 111.709 35.4551C111.706 35.6064 111.703 35.8288 111.699 36.1131C111.692 36.6815 111.681 37.4971 111.669 38.4853C111.645 40.4619 111.616 43.1281 111.597 45.8879C111.558 51.474 111.561 57.2601 111.704 58.6627L108.72 58.9678ZM111.677 34.8773L113.935 45.0798L111.006 45.7281L108.748 35.5256L111.677 34.8773ZM113.961 45.2336C113.97 45.3121 113.98 45.4233 113.987 45.4942L111.002 45.7927C110.99 45.678 110.986 45.6257 110.98 45.5742L113.961 45.2336ZM113.989 45.5119C114.08 46.5533 114.248 49.3572 114.469 52.1627L111.478 52.3981C111.246 49.4469 111.094 46.8432 111 45.775L113.989 45.5119ZM114.469 52.1641C114.728 55.4902 115.061 58.8201 115.435 60.1974L112.54 60.9838C112.075 59.271 111.728 55.6111 111.478 52.3968L114.469 52.1641ZM115.437 60.2029C115.467 60.3164 115.493 60.396 115.512 60.4475C115.533 60.5046 115.536 60.4988 115.511 60.4582L112.954 62.0266C112.751 61.6957 112.625 61.3018 112.538 60.9782L115.437 60.2029ZM115.514 60.462L116.964 62.8427L114.402 64.4035L112.952 62.0228L115.514 60.462ZM116.964 62.8435L117.34 63.46L114.777 65.0192L114.401 64.4027L116.964 62.8435ZM117.34 63.4603C117.907 64.3935 118.36 65.3822 118.696 66.4048L115.846 67.3413C115.58 66.5329 115.223 65.7533 114.776 65.0189L117.34 63.4603ZM118.697 66.4089C119.152 67.8084 119.385 69.2722 119.385 70.7503H116.385C116.385 69.5878 116.202 68.4372 115.844 67.3372L118.697 66.4089ZM119.385 70.7503V73.6098H116.385V70.7503H119.385Z" fill="white" mask="url(#path-49-inside-4)"/>
<path d="M117.848 101.495H115.403C115.668 93.8977 116.268 80.7281 115.743 73.6097H117.886H117.887V85.7028V101.477C117.874 101.482 117.861 101.49 117.848 101.495Z" fill="#2A1D10"/>
<path d="M113.419 81.4541C109.657 76.9024 103.557 76.9024 99.7945 81.4541C99.4156 80.9973 99.0387 80.5403 98.6617 80.084C103.048 74.7748 110.164 74.7748 114.552 80.084C114.173 80.5403 113.796 80.9973 113.419 81.4541Z" fill="#0F0F0F"/>
<path d="M110.958 34.2033V30.2943H102.257V34.2033H110.958Z" fill="white" stroke="#0F0F0F" stroke-width="2"/>
<path d="M113.544 89.0122H99.6702V86.0003H113.544V89.0122Z" fill="#0F0F0F"/>
<path d="M115.042 95.038H98.1693V91.5953H115.042V95.038Z" fill="#0F0F0F"/>
<path d="M134.014 110.641H28.8304C28.8304 110.641 27.4673 95.7532 31.5862 84.8172C33.5064 79.7032 36.6299 75.4488 41.6587 73.9906C66.9456 66.6612 113.49 103.677 113.49 103.677C113.49 103.677 124.119 97.8126 127.418 98.9116C130.716 100.011 134.014 110.641 134.014 110.641Z" fill="#FFC393"/>
<path d="M185.201 9.24409C189.537 15.5357 215.009 21.584 215.009 21.584C215.009 21.584 218.308 2.89124 208.046 0.510542C197.784 -1.87201 187.828 4.60155 185.201 9.24409Z" fill="#FF4747"/>
<path d="M118.725 110.641H28.8303C28.8303 110.641 28.6149 108.277 28.6149 104.741C28.6149 99.4043 29.1088 91.3966 31.5861 84.8172C36.5852 106.286 91.4061 110.083 118.725 110.641Z" fill="#FAA879"/>
<path d="M123.534 147.794C116.327 147.794 109.246 147.027 102.933 145.213C94.4999 137.588 103.113 125.677 130.959 125.3C131.341 125.294 131.718 125.293 132.093 125.293C154.48 125.293 165.544 134.41 159.923 141.915C149.908 145.299 136.52 147.796 123.534 147.794Z" fill="#FF4747"/>
<path d="M128.437 165.718C124.003 165.718 119.366 165.119 114.59 163.781C105.427 161.217 100.664 150.588 88.2032 146.189C87.7482 142.686 87.609 139.673 87.3156 136.741C91.4066 140.713 96.8104 143.455 102.933 145.213C106.933 148.831 114.766 151.482 126.203 151.482C128.318 151.482 130.554 151.391 132.915 151.198C148.04 149.969 156.709 146.205 159.923 141.915C165.108 140.162 169.386 138.175 172.239 136.171C171.711 137.373 171.184 138.641 170.662 139.96C165.799 152.307 149.396 165.718 128.437 165.718Z" fill="#FF4747"/>
<path d="M126.203 151.482C114.765 151.482 106.932 148.831 102.932 145.213C109.246 147.027 116.327 147.794 123.534 147.794C136.52 147.796 149.908 145.299 159.922 141.915C156.708 146.205 148.039 149.969 132.914 151.198C130.554 151.391 128.318 151.482 126.203 151.482Z" fill="#C03638"/>
</svg>
