<svg height="504pt" viewBox="-106 0 504 504" width="504pt" xmlns="http://www.w3.org/2000/svg"><path d="m96 152v-56h-48v56c-16 16-48 32-48 80v264c0 4.398438 3.59375 8 8 8h128c4.390625 0 8-3.601562 8-8v-264c0-48-32-64-48-80zm0 0" fill="#e6e9ed"/><path d="m16 288h112v120h-112zm0 0" fill="#f5f7fa"/><path d="m16 436c0 2.199219 1.800781 4 4 4h104c2.199219 0 4-1.800781 4-4v-28h-112zm0 0" fill="#ed5565"/><path d="m124 256h-104c-2.199219 0-4 1.800781-4 4v28h112v-28c0-2.199219-1.800781-4-4-4zm0 0" fill="#ed5565"/><path d="m292 376-16 128h-88l-16-128zm0 0" fill="#e6e9ed"/><path d="m174 392h116l2-16h-120zm0 0" fill="#ccd1d9"/><path d="m56 376c0 4.417969-3.582031 8-8 8s-8-3.582031-8-8 3.582031-8 8-8 8 3.582031 8 8zm0 0" fill="#ed5565"/><path d="m80 376c0 4.417969-3.582031 8-8 8s-8-3.582031-8-8 3.582031-8 8-8 8 3.582031 8 8zm0 0" fill="#ed5565"/><path d="m103.984375 376c0 4.417969-3.582031 8-8 8s-8-3.582031-8-8 3.582031-8 8-8 8 3.582031 8 8zm0 0" fill="#ed5565"/><path d="m96 32.007812v63.992188h-48v-79.992188h48zm0 0" fill="#da4453"/><path d="m92 0h-40c-2.199219 0-4 1.800781-4 4v8 8 12h48v-12c0-2.199219 0-5.800781 0-8v-8c0-2.199219-1.800781-4-4-4zm0 0" fill="#ed5565"/><path d="m107.3125 276h-70.625c-2.214844 0-4-1.792969-4-4s1.785156-4 4-4h70.625c2.214844 0 4 1.792969 4 4s-1.785156 4-4 4zm0 0" fill="#da4453"/><path d="m107.3125 428h-70.625c-2.214844 0-4-1.792969-4-4s1.785156-4 4-4h70.625c2.214844 0 4 1.792969 4 4s-1.785156 4-4 4zm0 0" fill="#da4453"/><path d="m108 332h-72c-2.199219 0-4-1.792969-4-4s1.800781-4 4-4h72c2.199219 0 4 1.792969 4 4s-1.800781 4-4 4zm0 0" fill="#e6e9ed"/><path d="m92 348h-40c-2.199219 0-4-1.792969-4-4s1.800781-4 4-4h40c2.199219 0 4 1.792969 4 4s-1.800781 4-4 4zm0 0" fill="#e6e9ed"/><path d="m232 484c-2.214844 0-4-1.792969-4-4v-64c0-2.207031 1.785156-4 4-4 2.199219 0 4 1.792969 4 4v64c0 2.207031-1.800781 4-4 4zm0 0" fill="#ccd1d9"/><path d="m252.015625 484c-.167969 0-.34375-.007812-.511719-.03125-2.183594-.273438-3.734375-2.273438-3.472656-4.472656l8-64c.265625-2.191406 2.3125-3.792969 4.472656-3.472656 2.183594.273437 3.753906 2.273437 3.472656 4.472656l-8 64c-.257812 2.023437-1.976562 3.503906-3.960937 3.503906zm0 0" fill="#ccd1d9"/><path d="m211.984375 484c.167969 0 .34375-.007812.511719-.03125 2.183594-.273438 3.734375-2.273438 3.472656-4.472656l-8-64c-.265625-2.191406-2.3125-3.792969-4.472656-3.472656-2.183594.273437-3.753906 2.273437-3.472656 4.472656l8 64c.257812 2.023437 1.976562 3.503906 3.960937 3.503906zm0 0" fill="#ccd1d9"/><path d="m56 68c-1.59375 0-3.097656-.953125-3.71875-2.511719-.816406-2.046875.167969-4.375 2.230469-5.199219l32-12.800781c2.03125-.832031 4.375.175781 5.183593 2.230469.832032 2.050781-.167968 4.378906-2.214843 5.203125l-32 12.796875c-.480469.191406-.992188.28125-1.480469.28125zm0 0" fill="#ed5565"/><path d="m56 84c-1.59375 0-3.097656-.953125-3.71875-2.511719-.816406-2.046875.167969-4.375 2.230469-5.199219l16-6.402343c2.046875-.832031 4.375.175781 5.183593 2.234375.832032 2.046875-.167968 4.375-2.214843 5.199218l-16 6.398438c-.480469.191406-.992188.28125-1.480469.28125zm0 0" fill="#ed5565"/><g fill="#ccd1d9"><path d="m128 496c-2.214844 0-4 1.792969-4 4v4h8v-4c0-2.207031-1.800781-4-4-4zm0 0"/><path d="m112 496c-2.214844 0-4 1.792969-4 4v4h8v-4c0-2.207031-1.800781-4-4-4zm0 0"/><path d="m96 496c-2.214844 0-4 1.792969-4 4v4h8v-4c0-2.207031-1.800781-4-4-4zm0 0"/><path d="m80 496c-2.214844 0-4 1.792969-4 4v4h8v-4c0-2.207031-1.800781-4-4-4zm0 0"/><path d="m64 496c-2.214844 0-4 1.792969-4 4v4h8v-4c0-2.207031-1.800781-4-4-4zm0 0"/><path d="m48 496c-2.214844 0-4 1.792969-4 4v4h8v-4c0-2.207031-1.800781-4-4-4zm0 0"/><path d="m32 496c-2.214844 0-4 1.792969-4 4v4h8v-4c0-2.207031-1.800781-4-4-4zm0 0"/><path d="m16 496c-2.214844 0-4 1.792969-4 4v4h8v-4c0-2.207031-1.800781-4-4-4zm0 0"/></g></svg>