<svg height="496pt" viewBox="-35 0 495 496" width="496pt" xmlns="http://www.w3.org/2000/svg"><path d="m424.253906 181.3125-.25-1.257812c-5.777344-23.886719-18.839844-41.894532-38.824218-53.300782-15.640626-8.9375-35.328126-13.472656-58.511719-13.472656-28.351563 0-52.535157 6.949219-55.199219 7.75-8.417969 2.570312-13.183594 11.527344-10.617188 19.96875 2.527344 8.296875 11.570313 13.191406 19.96875 10.632812 9.742188-2.976562 27.582032-6.464843 45.808594-6.464843 17.464844 0 31.824219 3.152343 42.679688 9.34375 12.039062 6.878906 19.71875 17.617187 23.488281 32.816406 1.925781 13.59375 14.40625 132.34375-115.738281 240.367187-6.789063 5.640626-7.726563 15.753907-2.09375 22.535157 5.464844 6.578125 15.984375 7.546875 22.519531 2.097656 149.917969-124.464844 127.785156-265.097656 126.769531-271.015625zm0 0" fill="#e6e9ed"/><path d="m288.507812 40v8h-264.015624v-8s40.007812-40 132.007812-40 132.007812 40 132.007812 40zm0 0" fill="#f5f7fa"/><path d="m296.5 40 2.398438 64h-284.796876l2.398438-64zm0 0" fill="#e6e9ed"/><path d="m296.5 464h16c0 17.671875-14.320312 32-32 32h-248c-17.679688 0-32-14.328125-32-32zm0 0" fill="#e6e9ed"/><path d="m310.980469 424.3125 1.519531 39.6875h-312l13.601562-360h284.796876l.640624 16.640625.882813 23.671875 9.359375 248zm0 0" fill="#ffce54"/><g fill="#e6e9ed"><path d="m60.738281 36c-2.207031 0-4.039062-1.785156-4.039062-4 0-2.199219 1.753906-4 3.953125-4h.085937c2.203125 0 4 1.800781 4 4 0 2.214844-1.789062 4-4 4zm0 0"/><path d="m92.738281 20c-2.207031 0-4.039062-1.785156-4.039062-4 0-2.199219 1.753906-4 3.953125-4h.085937c2.203125 0 4 1.800781 4 4 0 2.214844-1.789062 4-4 4zm0 0"/><path d="m124.738281 36c-2.207031 0-4.039062-1.785156-4.039062-4 0-2.199219 1.753906-4 3.953125-4h.085937c2.203125 0 4 1.800781 4 4 0 2.214844-1.789062 4-4 4zm0 0"/><path d="m156.738281 20c-2.207031 0-4.039062-1.785156-4.039062-4 0-2.199219 1.753906-4 3.953125-4h.085937c2.203125 0 4 1.800781 4 4 0 2.214844-1.789062 4-4 4zm0 0"/><path d="m188.738281 36c-2.207031 0-4.039062-1.785156-4.039062-4 0-2.199219 1.753906-4 3.953125-4h.085937c2.203125 0 4 1.800781 4 4 0 2.214844-1.789062 4-4 4zm0 0"/><path d="m220.738281 20c-2.207031 0-4.039062-1.785156-4.039062-4 0-2.199219 1.753906-4 3.953125-4h.085937c2.203125 0 4 1.800781 4 4 0 2.214844-1.789062 4-4 4zm0 0"/><path d="m252.738281 36c-2.207031 0-4.039062-1.785156-4.039062-4 0-2.199219 1.753906-4 3.953125-4h.085937c2.203125 0 4 1.800781 4 4 0 2.214844-1.789062 4-4 4zm0 0"/></g><path d="m100.460938 207.953125c0-8.816406-7.175782-16-16-16-8.824219 0-16 7.183594-16 16v164c0 8.832031 7.175781 16 16 16 8.824218 0 16-7.167969 16-16zm0 0" fill="#f6bb42"/><path d="m172.5 207.953125c0-8.816406-7.175781-16-16-16s-16 7.183594-16 16v164c0 8.832031 7.175781 16 16 16s16-7.167969 16-16zm0 0" fill="#f6bb42"/><path d="m244.539062 207.953125c0-8.816406-7.175781-16-16-16-8.824218 0-16 7.183594-16 16v164c0 8.832031 7.175782 16 16 16 8.824219 0 16-7.167969 16-16zm0 0" fill="#f6bb42"/></svg>