<svg width="24" height="24" viewBox="0 0 24 24" fill="none" xmlns="http://www.w3.org/2000/svg">
<g clip-path="url(#clip0)">
<path d="M24 12.2756C24 11.4599 23.9325 10.6397 23.7886 9.83722H12.2407V14.4582H18.8536C18.5792 15.9486 17.6975 17.2669 16.4064 18.1047V21.1031H20.3516C22.6684 19.013 24 15.9265 24 12.2756Z" fill="#4285F4"/>
<path d="M12.2407 24C15.5427 24 18.3273 22.9374 20.3562 21.1031L16.4109 18.1047C15.3132 18.8367 13.8962 19.2512 12.2452 19.2512C9.05119 19.2512 6.34303 17.1391 5.37134 14.2995H1.30011V17.3904C3.37846 21.4426 7.61164 24 12.2407 24Z" fill="#34A853"/>
<path d="M5.36681 14.2994C4.85397 12.8091 4.85397 11.1953 5.36681 9.70493V6.61398H1.30008C-0.436373 10.0048 -0.436373 13.9996 1.30008 17.3904L5.36681 14.2994Z" fill="#FBBC04"/>
<path d="M12.2407 4.74884C13.9861 4.72238 15.6731 5.36614 16.9372 6.54784L20.4326 3.12179C18.2193 1.08468 15.2817 -0.03529 12.2407 -1.53086e-05C7.61164 -1.53086e-05 3.37846 2.5574 1.30011 6.61398L5.36684 9.70493C6.33404 6.86091 9.04669 4.74884 12.2407 4.74884Z" fill="#EA4335"/>
</g>
<defs>
<clipPath id="clip0">
<rect width="24" height="24" fill="white"/>
</clipPath>
</defs>
</svg>
