<svg width="275" height="496" viewBox="0 0 275 496" fill="none" xmlns="http://www.w3.org/2000/svg">
<path d="M183.147 488.369H91.5752L137.361 457.845L183.147 488.369Z" fill="#CCD1D9"/>
<path d="M137.359 496C133.148 496 129.728 492.579 129.728 488.369V289.978C129.728 285.767 133.148 282.347 137.359 282.347C141.569 282.347 144.99 285.767 144.99 289.978V488.369C144.99 492.579 141.569 496 137.359 496Z" fill="#CCD1D9"/>
<path d="M244.19 496H30.5216C26.3112 496 22.8906 492.579 22.8906 488.369C22.8906 484.159 26.3112 480.738 30.5216 480.738H244.19C248.4 480.738 251.821 484.159 251.821 488.369C251.821 492.579 248.4 496 244.19 496Z" fill="#E6E9ED"/>
<path d="M274.567 167.912C274.567 243.737 213.102 305.195 137.283 305.195C61.4578 305.195 0 243.737 0 167.912C0 92.0937 61.4578 15.3365 137.283 15.3365C213.102 15.3365 274.567 92.0937 274.567 167.912Z" fill="#ED5565"/>
<path d="M227.113 0H47.6207C47.6207 0 -0.304083 88.3973 0.00145475 167.912H274.568C275.008 88.3973 227.113 0 227.113 0Z" fill="#E6E9ED"/>
</svg>
